<?xml version="1.0" encoding="UTF-8"?>
<svg width="600" height="400" viewBox="0 0 600 400" xmlns="http://www.w3.org/2000/svg">
  <!-- Background -->
  <rect width="600" height="400" fill="#f9fafc" />
  
  <!-- Dashboard Card -->
  <rect x="30" y="20" width="540" height="360" rx="10" fill="#ffffff" stroke="#e5e7eb" stroke-width="2" />
  
  <!-- Header -->
  <text x="300" y="50" font-family="Arial, sans-serif" font-size="20" font-weight="bold" fill="#111827" text-anchor="middle">הפרופיל שלי - סטטיסטיקות</text>
  
  <!-- Rating -->
  <text x="500" y="90" font-family="Arial, sans-serif" font-size="16" font-weight="bold" fill="#4f46e5" text-anchor="end">דירוג ELO: 785</text>
  
  <!-- Progress Graph -->
  <rect x="70" y="110" width="460" height="160" rx="5" fill="#f9fafc" />
  
  <!-- Graph Title -->
  <text x="300" y="130" font-family="Arial, sans-serif" font-size="14" fill="#6b7280" text-anchor="middle">התקדמות הדירוג שלך ב-30 הימים האחרונים</text>
  
  <!-- Graph Axes -->
  <line x1="90" y1="250" x2="510" y2="250" stroke="#e5e7eb" stroke-width="1" />
  <line x1="90" y1="140" x2="90" y2="250" stroke="#e5e7eb" stroke-width="1" />
  
  <!-- Graph Labels -->
  <text x="90" y="265" font-family="Arial, sans-serif" font-size="10" fill="#6b7280" text-anchor="middle">1</text>
  <text x="230" y="265" font-family="Arial, sans-serif" font-size="10" fill="#6b7280" text-anchor="middle">10</text>
  <text x="370" y="265" font-family="Arial, sans-serif" font-size="10" fill="#6b7280" text-anchor="middle">20</text>
  <text x="510" y="265" font-family="Arial, sans-serif" font-size="10" fill="#6b7280" text-anchor="middle">30</text>
  
  <text x="75" y="250" font-family="Arial, sans-serif" font-size="10" fill="#6b7280" text-anchor="end">600</text>
  <text x="75" y="195" font-family="Arial, sans-serif" font-size="10" fill="#6b7280" text-anchor="end">700</text>
  <text x="75" y="140" font-family="Arial, sans-serif" font-size="10" fill="#6b7280" text-anchor="end">800</text>
  
  <!-- Graph Line -->
  <polyline points="90,230 130,225 170,240 210,210 250,215 290,200 330,180 370,190 410,170 450,160 490,145 510,130" 
           fill="none" stroke="#4f46e5" stroke-width="2" />
  
  <!-- Graph Points -->
  <circle cx="90" cy="230" r="3" fill="#4f46e5" />
  <circle cx="130" cy="225" r="3" fill="#4f46e5" />
  <circle cx="170" cy="240" r="3" fill="#4f46e5" />
  <circle cx="210" cy="210" r="3" fill="#4f46e5" />
  <circle cx="250" cy="215" r="3" fill="#4f46e5" />
  <circle cx="290" cy="200" r="3" fill="#4f46e5" />
  <circle cx="330" cy="180" r="3" fill="#4f46e5" />
  <circle cx="370" cy="190" r="3" fill="#4f46e5" />
  <circle cx="410" cy="170" r="3" fill="#4f46e5" />
  <circle cx="450" cy="160" r="3" fill="#4f46e5" />
  <circle cx="490" cy="145" r="3" fill="#4f46e5" />
  <circle cx="510" cy="130" r="4" fill="#4f46e5" stroke="#ffffff" stroke-width="1" />
  
  <!-- Stats -->
  <rect x="70" y="290" width="140" height="70" rx="5" fill="#f3f4f6" />
  <text x="140" y="315" font-family="Arial, sans-serif" font-size="14" font-weight="bold" fill="#111827" text-anchor="middle">משחקים</text>
  <text x="140" y="340" font-family="Arial, sans-serif" font-size="20" font-weight="bold" fill="#4f46e5" text-anchor="middle">42</text>
  
  <rect x="230" y="290" width="140" height="70" rx="5" fill="#f3f4f6" />
  <text x="300" y="315" font-family="Arial, sans-serif" font-size="14" font-weight="bold" fill="#111827" text-anchor="middle">ניצחונות</text>
  <text x="300" y="340" font-family="Arial, sans-serif" font-size="20" font-weight="bold" fill="#4f46e5" text-anchor="middle">28</text>
  
  <rect x="390" y="290" width="140" height="70" rx="5" fill="#f3f4f6" />
  <text x="460" y="315" font-family="Arial, sans-serif" font-size="14" font-weight="bold" fill="#111827" text-anchor="middle">מילים נלמדו</text>
  <text x="460" y="340" font-family="Arial, sans-serif" font-size="20" font-weight="bold" fill="#4f46e5" text-anchor="middle">156</text>
</svg> 